<?xml version="1.0" encoding="UTF-8" standalone="no"?>
<!DOCTYPE svg PUBLIC "-//W3C//DTD SVG 1.1//EN" "http://www.w3.org/Graphics/SVG/1.1/DTD/svg11.dtd">
<svg width="100%" height="100%" viewBox="0 0 151 158" version="1.1" xmlns="http://www.w3.org/2000/svg" xmlns:xlink="http://www.w3.org/1999/xlink" xml:space="preserve" xmlns:serif="http://www.serif.com/" style="fill-rule:evenodd;clip-rule:evenodd;stroke-linejoin:round;stroke-miterlimit:2;">
    <g transform="matrix(1,0,0,1,-824.633,1150.58)">
        <g id="Layer-1" serif:id="Layer 1">
            <g id="g34521">
                <g id="path43050-7-4-6-1-5-5" transform="matrix(1,0,0,1,824.633,-1150.58)">
                    <path d="M109.577,41.395L86.111,17.929L45.183,26.076L90.347,-0L120.626,52.444L113.474,45.292L113.474,41.395L109.577,41.395Z" style="fill:white;fill-rule:nonzero;"/>
                </g>
                <g id="g4014-2-0-9-6-8" transform="matrix(0.526776,0,0,0.526776,475.388,-1230.59)">
                    <g id="text46893-8-8-7-8-3-4-5-5-8-7-0-8-4-8-3-7-9-4-5-7-9-3-5-9" transform="matrix(0.899598,0,0,1.12684,-5.99948,-2.56457)">
                        <path id="path3165" d="M983.062,335.48L955.439,335.48L938.213,307.857L921.167,335.48L894.149,335.48L923.464,290.268L895.902,247.111L922.376,247.111L938.333,274.432L953.686,247.111L980.946,247.111L952.961,292.142L983.062,335.48Z" style="fill:white;fill-rule:nonzero;"/>
                    </g>
                    <g id="text46893-8-8-7-8-3-4-5-5-8-5-0-2-2-0-4-9-1-2-9-6-0-9-6" transform="matrix(0.904056,0,0,1.1103,-1.38269,-0.519628)">
                        <path id="path3162" d="M859.696,338.638L835.465,338.638L835.465,268.766L813.565,268.766L813.565,248.952L881.535,248.952L881.535,268.766L859.696,268.766L859.696,338.638Z" style="fill:white;fill-rule:nonzero;"/>
                    </g>
                    <g id="text43103-3-6-3-0-9-7-7-6-1-9-1-0-7-4-8-0-2-6-6-6-2-7-4" transform="matrix(0.912003,0,0,1.09649,0,0)">
                        <path id="path3168" d="M834.108,224.269L817.899,224.269L817.899,217.825L838.426,217.825L838.426,211.315L814.776,211.315C811.543,211.315 809.085,211.847 807.403,212.909C805.72,213.972 804.878,215.589 804.878,217.759L804.878,240.611C804.878,242.781 805.72,244.398 807.403,245.461C809.085,246.524 811.543,247.055 814.776,247.055L838.426,247.055L838.426,240.545L817.899,240.545L817.899,230.846L834.108,230.846L834.108,224.269Z" style="fill:white;fill-rule:nonzero;"/>
                        <path id="path3170" d="M867.257,217.825L844.405,217.825L844.405,211.315L870.379,211.315C873.612,211.315 876.07,211.847 877.753,212.909C879.436,213.972 880.277,215.589 880.277,217.759L880.277,240.611C880.277,242.781 879.436,244.398 877.753,245.461C876.07,246.524 873.612,247.055 870.379,247.055L844.405,247.055L844.405,221.08L857.425,221.08L857.425,240.545L867.257,240.545L867.257,217.825Z" style="fill:white;fill-rule:nonzero;"/>
                        <path id="path3172" d="M909.108,240.545L899.277,240.545L899.277,217.825L922.129,217.825L922.129,211.315L896.154,211.315C892.921,211.315 890.463,211.847 888.781,212.909C887.098,213.972 886.256,215.589 886.256,217.759L886.256,240.611C886.256,242.781 887.098,244.398 888.781,245.461C890.463,246.524 892.921,247.055 896.154,247.055L912.231,247.055C915.464,247.055 917.922,246.524 919.605,245.461C921.287,244.398 922.129,242.781 922.129,240.611L922.129,224.269L909.108,224.269L909.108,240.545Z" style="fill:white;fill-rule:nonzero;"/>
                        <path id="path3174" d="M957.337,224.269L941.128,224.269L941.128,217.825L961.655,217.825L961.655,211.315L938.006,211.315C934.773,211.315 932.315,211.847 930.632,212.909C928.949,213.972 928.108,215.589 928.108,217.759L928.108,240.611C928.108,242.781 928.949,244.398 930.632,245.461C932.315,246.524 934.773,247.055 938.006,247.055L961.655,247.055L961.655,240.545L941.128,240.545L941.128,230.846L957.337,230.846L957.337,224.269Z" style="fill:white;fill-rule:nonzero;"/>
                    </g>
                </g>
                <path id="path43052-8-2-1-8-2-0" d="M930.358,-1124.49L975.523,-1098.42L945.244,-1045.97L957.878,-1093.12L930.358,-1124.49Z" style="fill:white;fill-rule:nonzero;"/>
                <path id="path2282-9-7-3-9-1-2-5-4" d="M839.536,-1072.08L839.536,-1124.23L900.093,-1124.23L852.945,-1111.59L839.536,-1072.08Z" style="fill:white;fill-rule:nonzero;stroke:white;stroke-opacity:0;stroke-width:1px;"/>
                <path id="path43054-8-2-7-8-4-8" d="M960.621,-1072.06L960.621,-1019.9L900.064,-1019.9L947.212,-1032.54L960.621,-1072.06Z" style="fill:white;fill-rule:nonzero;"/>
                <path id="path43056-6-6-1-0-7-7" d="M930.341,-1019.63L885.177,-993.554L854.897,-1046L889.412,-1011.48L930.341,-1019.63Z" style="fill:white;fill-rule:nonzero;"/>
                <path id="path43058-0-8-3-2-4-1" d="M869.798,-1019.64L824.633,-1045.71L854.912,-1098.16L842.279,-1051.01L869.798,-1019.64Z" style="fill:white;fill-rule:nonzero;"/>
            </g>
        </g>
    </g>
</svg>
